<?xml version="1.0" encoding="UTF-8" standalone="no"?><!DOCTYPE svg PUBLIC "-//W3C//DTD SVG 1.1//EN" "http://www.w3.org/Graphics/SVG/1.1/DTD/svg11.dtd"><svg width="100%" height="100%" viewBox="0 0 62 35" version="1.1" xmlns="http://www.w3.org/2000/svg" xmlns:xlink="http://www.w3.org/1999/xlink" xml:space="preserve" xmlns:serif="http://www.serif.com/" style="fill-rule:evenodd;clip-rule:evenodd;stroke-linejoin:round;stroke-miterlimit:1.41421;"><path d="M0,34.359l0,-34.359l6.844,0l8.133,24.328c0.75,2.266 1.296,3.961 1.64,5.086c0.391,-1.25 1,-3.086 1.828,-5.508l8.227,-23.906l6.117,0l0,34.359l-4.383,0l0,-28.757l-9.984,28.757l-4.102,0l-9.937,-29.25l0,29.25l-4.383,0Z" style="fill-rule:nonzero;"/><path d="M35.802,0l10.628,0c3.062,0 5.39,0.309 6.984,0.926c1.594,0.617 2.867,1.707 3.82,3.269c0.954,1.563 1.43,3.289 1.43,5.18c0,2.438 -0.789,4.492 -2.367,6.164c-1.578,1.672 -4.016,2.734 -7.313,3.188c1.204,0.578 2.118,1.148 2.743,1.71c1.328,1.219 2.586,2.743 3.773,4.571l5.977,9.351l-5.719,0l-4.547,-7.148c-1.328,-2.063 -2.422,-3.641 -3.281,-4.734c-0.86,-1.094 -1.629,-1.86 -2.309,-2.297c-0.68,-0.438 -1.371,-0.743 -2.074,-0.914c-0.516,-0.11 -1.359,-0.164 -2.531,-0.164l-5.214,0l0,-3.938l9.714,0c2.078,0 3.703,-0.215 4.875,-0.644c1.171,-0.43 2.062,-1.118 2.671,-2.063c0.61,-0.945 0.915,-1.973 0.915,-3.082c0,-1.625 -0.59,-2.961 -1.77,-4.008c-1.18,-1.047 -3.043,-1.57 -5.59,-1.57l-10.815,0l0,-3.797Z"/></svg>